<svg xmlns="http://www.w3.org/2000/svg" width="24" height="24" fill="none"><rect width="24" height="24" fill="#F2CEDC" rx="4"/><rect width="23" height="23" x=".5" y=".5" stroke="#4D142A" stroke-opacity=".75" rx="3.5"/><path fill="#4D142A" fill-rule="evenodd" d="M17.091 6.886c-2.812-2.795-7.37-2.795-10.182 0a7.13 7.13 0 0 0-.276 9.833c.331.368.3.933-.07 1.263a.904.904 0 0 1-1.271-.07 8.91 8.91 0 0 1 .344-12.291c3.515-3.495 9.213-3.495 12.728 0a8.91 8.91 0 0 1 .344 12.292.903.903 0 0 1-1.27.07.89.89 0 0 1-.07-1.264 7.13 7.13 0 0 0-.277-9.833M8.4 11.053c0-1.977 1.612-3.58 3.6-3.58s3.6 1.603 3.6 3.58v1.79a3.584 3.584 0 0 1-2.7 3.465v1.902h.9c.497 0 .9.401.9.895a.897.897 0 0 1-.9.895h-3.6c-.497 0-.9-.4-.9-.895 0-.494.403-.895.9-.895h.9v-1.902a3.584 3.584 0 0 1-2.7-3.466z" clip-rule="evenodd"/></svg>